<?xml version="1.0" standalone="no"?>
<!DOCTYPE svg PUBLIC "-//W3C//DTD SVG 20010904//EN"
 "http://www.w3.org/TR/2001/REC-SVG-20010904/DTD/svg10.dtd">
<svg version="1.0" xmlns="http://www.w3.org/2000/svg"
 width="1920.000000pt" height="1080.000000pt" viewBox="0 0 1920.000000 1080.000000"
 preserveAspectRatio="xMidYMid meet">

<g transform="translate(0.000000,1080.000000) scale(0.100000,-0.100000)"
fill="#000000" stroke="none">
<path d="M7380 8139 c-547 -23 -1114 -218 -1570 -542 -562 -398 -959 -987
-1120 -1662 -121 -505 -117 -1084 11 -1605 131 -531 409 -1024 790 -1397 155
-152 247 -226 429 -348 349 -232 717 -377 1149 -450 l149 -25 2136 0 2136 0 0
390 0 390 -1092 2 -1093 3 0 820 0 820 850 8 c468 5 851 10 852 11 1 1 -14 32
-33 70 -39 79 -43 130 -15 192 20 43 66 85 114 103 15 6 91 20 170 32 111 17
183 21 330 20 164 -1 187 1 187 15 0 8 -13 27 -30 41 -52 44 -33 79 56 102 22
6 104 18 182 26 77 8 162 19 188 25 58 13 143 58 204 107 l45 36 -1144 -7
c-629 -3 -1531 -6 -2003 -6 l-858 0 0 -1204 c0 -1034 -2 -1205 -14 -1215 -11
-9 -130 -11 -483 -8 l-468 4 -160 31 c-354 69 -614 182 -873 376 -112 85 -291
265 -378 381 -193 258 -343 585 -409 898 -36 164 -37 167 -80 167 -51 0 -95
22 -134 65 -32 37 -33 41 -28 104 7 85 44 175 114 274 l56 79 8 126 c28 427
153 805 371 1125 271 394 720 689 1200 786 236 48 274 50 1256 57 l932 7 0
389 0 388 -692 1 c-381 1 -778 2 -883 3 -104 1 -264 -1 -355 -5z"/>
<path d="M9710 7740 l0 -390 1440 0 1440 0 0 390 0 390 -1440 0 -1440 0 0
-390z"/>
<path d="M7759 7065 c-411 -64 -807 -282 -1129 -622 -87 -91 -194 -222 -235
-286 l-18 -27 84 36 c130 55 408 153 485 169 185 39 287 26 356 -46 57 -60 67
-122 40 -251 -51 -244 -229 -476 -420 -548 -110 -42 -304 -18 -457 55 -67 32
-172 125 -202 179 -17 31 -38 12 -59 -55 -15 -50 -19 -94 -19 -204 0 -129 2
-144 25 -189 35 -70 115 -149 170 -168 25 -9 70 -26 100 -38 109 -42 605 -88
834 -77 105 5 125 9 175 34 75 38 107 89 160 249 66 199 268 1047 310 1299 28
166 42 358 30 420 -16 88 -49 98 -230 70z"/>
<path d="M6968 4307 c-115 -93 -286 -193 -405 -236 -73 -27 -74 -28 -43 -35
83 -16 203 3 349 55 159 57 142 56 184 14 42 -42 56 -41 34 2 -18 37 -34 103
-43 181 -3 34 -10 62 -14 62 -5 0 -32 -19 -62 -43z"/>
</g>
</svg>
